<?xml version="1.0" encoding="UTF-8"?>
<svg width="32px" height="32px" viewBox="0 0 32 32" version="1.1" xmlns="http://www.w3.org/2000/svg" xmlns:xlink="http://www.w3.org/1999/xlink">
    <title>ic_footer_twitter02</title>
    <g id="ic_footer_twitter02" stroke="none" stroke-width="1" fill="none" fill-rule="evenodd">
        <g id="ic_footer_twitter01" transform="translate(5.000000, 6.000000)" fill="#50ABF1">
            <path d="M20.8277778,5.49444444 C20.7,6.00555556 20.8277778,6.64444444 20.7,7.15555556 C19.8055556,14.3111111 14.95,19.2944444 8.05,19.6777778 C4.6,19.9333333 2.42777778,19.0388889 0,17.8888889 C2.55555556,17.6333333 4.98333333,17.1222222 6.64444444,15.8444444 C4.98333333,14.95 2.93888889,14.4388889 2.42777778,12.3944444 C2.81111111,12.1388889 3.70555556,12.3944444 4.34444444,12.2666667 C2.42777778,11.3722222 0.766666667,10.0944444 0.511111111,7.41111111 C1.15,7.41111111 1.53333333,7.92222222 2.3,7.79444444 C1.91666667,6.77222222 0.638888889,5.62222222 0.638888889,3.83333333 C0.638888889,3.06666667 0.766666667,2.3 1.15,1.66111111 C1.53333333,1.53333333 1.78888889,2.04444444 2.04444444,2.3 C4.08888889,4.34444444 7.02777778,6.26111111 11.1166667,6.51666667 C10.35,1.27777778 16.6111111,-1.15 19.55,2.17222222 C20.4444444,1.78888889 21.4666667,1.53333333 22.3611111,1.15 C22.1055556,2.17222222 21.2111111,2.55555556 20.9555556,3.45 C21.5944444,3.70555556 22.3611111,3.06666667 23,3.06666667 C22.4888889,4.08888889 21.0833333,4.47222222 20.8277778,5.49444444 L20.8277778,5.49444444 Z" id="Path"></path>
        </g>
    </g>
</svg>