<svg width="100" height="48" viewBox="0 0 100 48" fill="none" xmlns="http://www.w3.org/2000/svg">
    <path fill-rule="evenodd" clip-rule="evenodd" d="M17.353 40.03a3.043 3.043 0 0 1 1.915-1.11V5.19c0-.745-.608-1.189-1.195-1.189-.215 0-.533.06-.822.35L.347 21.293a1.177 1.177 0 0 0-.347.839c0 .317.123.614.346.838L17.25 39.937c.034.035.068.065.102.093" fill="#00A89B"/>
    <mask id="o09nv7krza" style="mask-type:alpha" maskUnits="userSpaceOnUse" x="17" y="39" width="5" height="5">
        <path d="M17.673 39.875h4.11v4.124h-4.11v-4.124z" fill="#fff"/>
    </mask>
    <g mask="url(#o09nv7krza)">
        <path fill-rule="evenodd" clip-rule="evenodd" d="M19.728 39.875c-.544 0-1.066.216-1.45.603a2.076 2.076 0 0 0-.605 1.46c.002.547.219 1.072.604 1.458a2.046 2.046 0 0 0 2.901 0c.385-.386.603-.911.604-1.459a2.076 2.076 0 0 0-.604-1.459 2.046 2.046 0 0 0-1.45-.603" fill="#878787"/>
    </g>
    <path fill-rule="evenodd" clip-rule="evenodd" d="M36.064 22.973a1.172 1.172 0 0 0-1.091-.732H20.259V38.6l15.549-14.333c.411-.415.402-.938.256-1.293z" fill="#96D200"/>
    <path fill-rule="evenodd" clip-rule="evenodd" d="M50.433 30.358c-.48 0-.96-.305-1.237-.76l-3.943-8.42-1.566 1.776v6.212c0 .659-.581 1.192-1.314 1.192-.732 0-1.339-.533-1.339-1.192v-16c0-.66.607-1.166 1.34-1.166.732 0 1.313.507 1.313 1.166v6.238c1.895-2.333 3.79-4.69 5.685-6.999.227-.253.657-.405 1.036-.405.96 0 1.617 1.14 1.011 1.902l-4.27 5.223 4.447 9.56c.301.684-.203 1.673-1.163 1.673zm6.013-2.51h2.35c1.49 0 2.677-1.268 2.677-2.84v-7.683c0-1.572-1.188-2.84-2.677-2.84h-2.351v13.362zm-1.29 2.358c-.731 0-1.338-.506-1.338-1.167V13.294c0-.634.607-1.143 1.34-1.143h3.638c2.93 0 5.304 2.31 5.304 5.174v7.683c0 2.865-2.374 5.198-5.304 5.198h-3.639zm18.847-6.415-1.844-6.999-1.896 6.999h3.741zm4.27 5.071c.152.685-.403 1.496-1.313 1.496-.556 0-1.036-.33-1.212-.837l-1.061-3.397h-5.104c-.354 1.166-.658 2.256-1.012 3.397-.151.482-.682.837-1.263.837-.758 0-1.515-.736-1.238-1.52v.024l4.8-16.025c.178-.482.708-.837 1.29-.837.556 0 1.06.355 1.238.837l4.85 16.025h.026zm10.485.837-5.811-11.715.227 11.182c0 .659-.581 1.192-1.313 1.192-.708 0-1.314-.533-1.314-1.192v-16c0-.66.656-1.166 1.314-1.166.48 0 .96.304 1.162.659l5.811 11.664-.228-11.157c0-.66.581-1.166 1.315-1.166.732 0 1.313.507 1.313 1.166v16c0 .558-.43 1.014-1.01 1.167l.05-.026c-.151.05-.227.05-.353.05-.455 0-.96-.278-1.163-.658" fill="#00A89B"/>
    <path fill-rule="evenodd" clip-rule="evenodd" d="M48.602 43.36V35.07l-2.704 5.429a.563.563 0 0 1-.528.33.592.592 0 0 1-.528-.331l-2.689-5.427v8.29a.59.59 0 0 1-.593.596.585.585 0 0 1-.577-.595V32.57c.017-.332.264-.596.577-.596.215 0 .43.132.528.331l3.282 6.62 3.298-6.62a.61.61 0 0 1 .528-.331c.347 0 .576.315.576.596v10.79a.588.588 0 0 1-.576.596.587.587 0 0 1-.55-.367.598.598 0 0 1-.044-.228zm4.898-8.092v5.395c0 1.159.94 2.119 2.11 2.119a2.13 2.13 0 0 0 2.112-2.12v-5.394a2.13 2.13 0 0 0-2.112-2.12c-.558 0-1.094.223-1.49.62a2.133 2.133 0 0 0-.62 1.5zm-1.17 5.395v-5.395c0-1.804 1.467-3.294 3.28-3.294.869 0 1.702.347 2.317.964a3.32 3.32 0 0 1 .966 2.33v5.395a3.32 3.32 0 0 1-.963 2.332 3.27 3.27 0 0 1-4.638 0 3.3 3.3 0 0 1-.963-2.332zm14.562-.265a2.255 2.255 0 0 0-2.26-2.267H62.62v4.534h2.012a2.256 2.256 0 0 0 2.26-2.267zm-4.272-7.15v3.708h2.012c1.022 0 1.847-.844 1.847-1.87 0-.994-.825-1.838-1.847-1.838h-2.013.001zm5.459 7.15c0 1.903-1.55 3.46-3.447 3.46h-2.606a.594.594 0 0 1-.576-.596v-10.61c0-.313.263-.579.576-.579h2.606c1.583 0 3.019 1.324 3.019 3.012 0 .977-.463 1.854-1.172 2.4.957.629 1.6 1.689 1.6 2.913zm7.157 2.863a.592.592 0 0 1-.594.596H70.52a.59.59 0 0 1-.418-.174.598.598 0 0 1 .418-1.017h1.484v-9.401H70.52a.59.59 0 0 1-.418-.175.598.598 0 0 1 .418-1.017h4.123a.59.59 0 0 1 .419.175.599.599 0 0 1-.419 1.018h-1.467v9.399h1.467c.33 0 .595.265.595.596h-.001zm8.328-.1a.593.593 0 0 1-.594.597h-4.8a.586.586 0 0 1-.547-.368.6.6 0 0 1-.045-.228V32.57a.592.592 0 0 1 .817-.551.577.577 0 0 1 .353.55v9.997h4.222c.33 0 .594.265.594.596" fill="#878787"/>
    <mask id="5b1s8ge41b" style="mask-type:alpha" maskUnits="userSpaceOnUse" x="85" y="32" width="7" height="12">
        <path d="M85.46 32.073h5.92v11.784h-5.92V32.073z" fill="#fff"/>
    </mask>
    <g mask="url(#5b1s8ge41b)">
        <path fill-rule="evenodd" clip-rule="evenodd" d="M91.381 43.261a.593.593 0 0 1-.594.596h-4.75a.585.585 0 0 1-.576-.596V32.654c0-.315.263-.58.576-.58h4.701a.59.59 0 0 1 .594.58.6.6 0 0 1-.367.55.587.587 0 0 1-.228.045h-4.105v3.674h3.628c.33 0 .594.265.594.596a.592.592 0 0 1-.595.578h-3.627v4.569h4.156c.33 0 .593.264.593.595" fill="#878787"/>
    </g>
</svg>
