<svg xmlns="http://www.w3.org/2000/svg" width="50" height="50" viewBox="0 0 50 50">
    <g fill="none" fill-rule="evenodd">
        <circle cx="25" cy="25" r="25" fill="#FFF"/>
        <path fill="#FFA147" fill-rule="nonzero" d="M22.454 36.374c.889 0 1.587-.343 2.07-1.054l11.819-18.014c.343-.52.482-1.016.482-1.473 0-1.231-.94-2.146-2.209-2.146-.863 0-1.409.318-1.942 1.143l-10.27 16.2-5.206-6.386c-.482-.584-1.015-.838-1.752-.838-1.282 0-2.209.914-2.209 2.158 0 .558.165 1.04.648 1.587l6.55 7.87c.546.648 1.181.953 2.02.953z"/>
    </g>
</svg>
