<svg xmlns="http://www.w3.org/2000/svg" width="195" height="50" viewBox="0 0 195 50">
    <g fill="none" fill-rule="nonzero">
        <path fill="#A6A6A6" d="M182.98 0H11.904c-.458 0-.91 0-1.367.003-.382.002-.76.01-1.147.015-.838.01-1.674.084-2.501.221a8.313 8.313 0 0 0-2.373.784 8.037 8.037 0 0 0-3.492 3.5 8.259 8.259 0 0 0-.78 2.379 16.261 16.261 0 0 0-.224 2.502c-.012.384-.013.768-.019 1.151v28.893c.006.388.007.764.019 1.153.01.838.085 1.675.224 2.502.137.829.4 1.631.78 2.38a7.76 7.76 0 0 0 1.47 2.018 7.834 7.834 0 0 0 2.022 1.474c.747.38 1.547.646 2.373.788.827.136 1.663.21 2.501.221.386.009.765.014 1.147.014.457.002.91.002 1.367.002h171.078c.448 0 .904 0 1.353-.002.38 0 .77-.005 1.15-.014.837-.01 1.672-.084 2.498-.22a8.487 8.487 0 0 0 2.382-.79 7.837 7.837 0 0 0 2.019-1.473 7.993 7.993 0 0 0 1.475-2.018c.377-.75.637-1.552.773-2.38.139-.827.216-1.664.231-2.502.005-.389.005-.765.005-1.153.01-.454.01-.906.01-1.367v-26.16c0-.459 0-.913-.01-1.366 0-.383 0-.767-.005-1.15a16.905 16.905 0 0 0-.231-2.503 8.28 8.28 0 0 0-.773-2.38 8.078 8.078 0 0 0-3.494-3.5 8.441 8.441 0 0 0-2.382-.783 16.264 16.264 0 0 0-2.497-.22c-.38-.007-.77-.014-1.151-.017C183.885 0 183.429 0 182.98 0z"/>
        <path fill="#000" d="M10.543 48.906c-.38 0-.752-.005-1.13-.013a15.82 15.82 0 0 1-2.333-.204 7.339 7.339 0 0 1-2.068-.685 6.749 6.749 0 0 1-1.744-1.27 6.65 6.65 0 0 1-1.274-1.746 7.159 7.159 0 0 1-.678-2.072 15.536 15.536 0 0 1-.208-2.343c-.008-.264-.018-1.142-.018-1.142V10.555s.01-.864.018-1.118c.01-.784.079-1.566.207-2.34a7.2 7.2 0 0 1 .678-2.077 6.717 6.717 0 0 1 1.268-1.748 6.948 6.948 0 0 1 1.75-1.278 7.263 7.263 0 0 1 2.064-.68 15.693 15.693 0 0 1 2.342-.205l1.126-.015h173.785l1.14.016c.777.009 1.553.077 2.32.203a7.407 7.407 0 0 1 2.086.685 6.988 6.988 0 0 1 3.015 3.025c.325.649.55 1.344.668 2.06.13.78.202 1.57.217 2.36.003.354.003.734.003 1.112.01.47.01.915.01 1.365v26.161c0 .454 0 .897-.01 1.344 0 .407 0 .779-.005 1.162-.014.777-.085 1.551-.213 2.317a7.18 7.18 0 0 1-.674 2.087 6.85 6.85 0 0 1-1.268 1.733c-.51.517-1.1.948-1.747 1.278a7.311 7.311 0 0 1-2.082.687c-.772.126-1.552.194-2.334.204-.365.008-.748.013-1.12.013l-1.353.003-172.438-.003z"/>
        <g fill="#FFF">
            <path d="M30.922 25.376a6.188 6.188 0 0 1 2.942-5.19 6.322 6.322 0 0 0-4.983-2.697c-2.096-.22-4.129 1.256-5.197 1.256-1.089 0-2.734-1.234-4.505-1.198a6.635 6.635 0 0 0-5.584 3.41c-2.414 4.185-.613 10.337 1.7 13.72 1.157 1.657 2.509 3.507 4.279 3.442 1.731-.072 2.378-1.106 4.468-1.106 2.07 0 2.678 1.106 4.483 1.064 1.858-.03 3.029-1.664 4.145-3.337a13.71 13.71 0 0 0 1.896-3.865 5.978 5.978 0 0 1-3.644-5.5zM27.511 15.264a6.096 6.096 0 0 0 1.392-4.364 6.186 6.186 0 0 0-4.005 2.075 5.8 5.8 0 0 0-1.427 4.202 5.115 5.115 0 0 0 4.04-1.913z"/>
            <g>
                <path d="M57.613 38.12V26.696h-.076l-4.673 11.306H51.08l-4.685-11.306h-.074V38.12h-2.192V22.598h2.783L51.93 34.85h.085l5.007-12.252h2.793V38.12zM61.666 34.904c0-1.98 1.515-3.174 4.202-3.335l3.094-.173v-.86c0-1.259-.828-1.97-2.236-1.97a2.16 2.16 0 0 0-2.374 1.594h-2.17c.065-2.045 1.967-3.496 4.608-3.496 2.697 0 4.48 1.473 4.48 3.7v7.756h-2.223V36.26h-.054a4.04 4.04 0 0 1-3.567 2.055 3.423 3.423 0 0 1-2.634-.872 3.433 3.433 0 0 1-1.126-2.538zm7.296-1.022v-.872l-2.784.172c-1.386.087-2.17.689-2.17 1.657 0 .99.817 1.636 2.063 1.636a2.707 2.707 0 0 0 2.89-2.593zM81.013 30.697a2.496 2.496 0 0 0-2.664-2.086c-1.783 0-2.965 1.495-2.965 3.851 0 2.41 1.193 3.861 2.986 3.861a2.433 2.433 0 0 0 2.643-2.032h2.235a4.519 4.519 0 0 1-4.899 3.97c-3.223 0-5.329-2.206-5.329-5.799 0-3.518 2.106-5.798 5.307-5.798a4.545 4.545 0 0 1 4.9 4.033h-2.214zM98.324 33.925h-5.91l-1.419 4.195h-2.502l5.597-15.522h2.6l5.597 15.522h-2.545l-1.418-4.195zm-5.297-1.936h4.684l-2.31-6.81h-.064l-2.31 6.81zM114.375 32.462c0 3.517-1.88 5.777-4.717 5.777a3.83 3.83 0 0 1-3.556-1.98h-.054v5.605h-2.32V26.803h2.246v1.882h.043a4.008 4.008 0 0 1 3.598-2c2.87 0 4.76 2.27 4.76 5.777zm-2.385 0c0-2.291-1.182-3.797-2.987-3.797-1.772 0-2.965 1.538-2.965 3.797 0 2.28 1.193 3.808 2.965 3.808 1.805 0 2.987-1.496 2.987-3.808zM126.815 32.462c0 3.517-1.88 5.777-4.717 5.777a3.83 3.83 0 0 1-3.556-1.98h-.054v5.605h-2.32V26.803h2.246v1.882h.043a4.008 4.008 0 0 1 3.599-2c2.868 0 4.76 2.27 4.76 5.777zm-2.384 0c0-2.291-1.183-3.797-2.987-3.797-1.773 0-2.965 1.538-2.965 3.797 0 2.28 1.192 3.808 2.965 3.808 1.804 0 2.987-1.496 2.987-3.808zM135.037 33.795c.172 1.54 1.666 2.55 3.706 2.55 1.956 0 3.363-1.01 3.363-2.399 0-1.204-.849-1.926-2.858-2.42l-2.01-.485c-2.846-.688-4.167-2.021-4.167-4.184 0-2.679 2.33-4.518 5.64-4.518 3.276 0 5.522 1.84 5.598 4.518h-2.342c-.14-1.55-1.42-2.484-3.288-2.484-1.87 0-3.148.946-3.148 2.323 0 1.097.817 1.743 2.815 2.237l1.708.42c3.18.753 4.502 2.032 4.502 4.303 0 2.904-2.31 4.723-5.985 4.723-3.438 0-5.759-1.776-5.909-4.584h2.375zM149.563 24.125v2.678h2.15v1.84h-2.15v6.239c0 .969.43 1.42 1.375 1.42.256-.004.51-.022.764-.053v1.828c-.425.08-.857.116-1.289.108-2.288 0-3.18-.86-3.18-3.056v-6.486h-1.644v-1.84h1.643v-2.678h2.331zM152.956 32.462c0-3.56 2.095-5.798 5.36-5.798 3.278 0 5.363 2.237 5.363 5.798 0 3.57-2.074 5.798-5.362 5.798-3.287 0-5.36-2.227-5.36-5.798zm8.359 0c0-2.442-1.118-3.884-2.998-3.884-1.88 0-2.998 1.453-2.998 3.884 0 2.453 1.118 3.883 2.998 3.883 1.88 0 2.998-1.43 2.998-3.883zM165.593 26.803h2.212v1.926h.054a2.696 2.696 0 0 1 2.719-2.044c.267-.001.534.028.795.086v2.173a3.24 3.24 0 0 0-1.043-.14 2.336 2.336 0 0 0-2.417 2.603v6.713h-2.32V26.803zM182.068 34.796c-.312 2.055-2.31 3.464-4.867 3.464-3.288 0-5.329-2.205-5.329-5.744 0-3.55 2.052-5.852 5.232-5.852 3.127 0 5.093 2.15 5.093 5.582v.796h-7.983v.14a2.95 2.95 0 0 0 .798 2.29 2.942 2.942 0 0 0 2.243.916 2.557 2.557 0 0 0 2.61-1.592h2.203zm-7.843-3.378h5.651a2.724 2.724 0 0 0-2.772-2.872 2.86 2.86 0 0 0-2.879 2.872z"/>
            </g>
        </g>
        <g fill="#FFF">
            <path d="M47.223 10.914c.984-.071 1.95.304 2.628 1.022.68.718 1 1.703.877 2.684 0 2.383-1.287 3.752-3.505 3.752h-2.691v-7.458h2.69zm-1.534 6.404h1.404a2.34 2.34 0 0 0 2.457-2.683 2.353 2.353 0 0 0-2.457-2.667H45.69v5.35zM52.034 15.555a2.668 2.668 0 0 1 1.247-2.52 2.66 2.66 0 0 1 2.809 0 2.668 2.668 0 0 1 1.247 2.52 2.668 2.668 0 0 1-1.246 2.524 2.66 2.66 0 0 1-2.811 0 2.668 2.668 0 0 1-1.246-2.524zm4.161 0c0-1.22-.547-1.933-1.508-1.933-.964 0-1.506.713-1.506 1.933 0 1.23.542 1.938 1.506 1.938.961 0 1.508-.713 1.508-1.938zM64.384 18.372h-1.15l-1.162-4.145h-.088l-1.157 4.145h-1.14l-1.55-5.628h1.126l1.007 4.295h.083l1.155-4.295h1.065l1.156 4.295h.087l1.002-4.295h1.11zM67.231 12.744H68.3v.894h.083a1.683 1.683 0 0 1 1.678-1.003 1.827 1.827 0 0 1 1.945 2.093v3.644h-1.11v-3.365c0-.904-.392-1.354-1.212-1.354a1.289 1.289 0 0 0-1.342 1.426v3.293h-1.11v-5.628zM73.773 10.546h1.11v7.826h-1.11zM76.425 15.555a2.668 2.668 0 0 1 1.247-2.52 2.66 2.66 0 0 1 2.808 0 2.668 2.668 0 0 1 1.247 2.52 2.668 2.668 0 0 1-1.245 2.524 2.66 2.66 0 0 1-2.812 0 2.668 2.668 0 0 1-1.245-2.524zm4.16 0c0-1.22-.547-1.933-1.507-1.933-.965 0-1.507.713-1.507 1.933 0 1.23.542 1.938 1.507 1.938.96 0 1.508-.713 1.508-1.938zM82.895 16.78c0-1.013.753-1.597 2.09-1.68l1.523-.088v-.486c0-.594-.392-.93-1.15-.93-.62 0-1.049.228-1.172.626h-1.074c.113-.967 1.021-1.587 2.297-1.587 1.409 0 2.204.702 2.204 1.891v3.846h-1.068v-.79h-.088a1.89 1.89 0 0 1-1.688.883 1.697 1.697 0 0 1-1.874-1.685zm3.613-.48v-.471l-1.372.088c-.775.052-1.126.315-1.126.812 0 .506.44.8 1.043.8a1.324 1.324 0 0 0 1.455-1.23zM89.071 15.555c0-1.778.913-2.905 2.333-2.905a1.852 1.852 0 0 1 1.724.988h.083v-3.092h1.11v7.826h-1.063v-.89h-.088a1.95 1.95 0 0 1-1.766.983c-1.43 0-2.333-1.127-2.333-2.91zm1.146 0c0 1.194.562 1.913 1.502 1.913.935 0 1.513-.73 1.513-1.908 0-1.173-.584-1.912-1.513-1.912-.934 0-1.502.723-1.502 1.907zM98.91 15.555a2.668 2.668 0 0 1 1.248-2.52 2.66 2.66 0 0 1 2.808 0 2.668 2.668 0 0 1 1.247 2.52 2.668 2.668 0 0 1-1.245 2.524c-.861.536-1.95.536-2.812 0a2.668 2.668 0 0 1-1.245-2.524zm4.162 0c0-1.22-.548-1.933-1.508-1.933-.965 0-1.507.713-1.507 1.933 0 1.23.542 1.938 1.507 1.938.96 0 1.508-.713 1.508-1.938zM105.702 12.744h1.068v.894h.083a1.683 1.683 0 0 1 1.677-1.003 1.827 1.827 0 0 1 1.946 2.093v3.644h-1.11v-3.365c0-.904-.392-1.354-1.212-1.354a1.289 1.289 0 0 0-1.343 1.426v3.293h-1.109v-5.628zM116.745 11.342v1.427h1.218v.936h-1.218v2.894c0 .59.243.848.795.848.141 0 .283-.01.423-.026v.926c-.2.035-.401.054-.604.056-1.233 0-1.725-.434-1.725-1.52v-3.178h-.892v-.936h.892v-1.427h1.111zM119.478 10.546h1.1v3.102h.088a1.73 1.73 0 0 1 1.714-1.008 1.85 1.85 0 0 1 1.936 2.098v3.634h-1.11v-3.36c0-.899-.419-1.354-1.203-1.354a1.312 1.312 0 0 0-1.415 1.427v3.287h-1.11v-7.826zM130.785 16.852a2.282 2.282 0 0 1-2.436 1.629c-.75.02-1.47-.291-1.97-.85-.5-.56-.73-1.312-.627-2.055a2.598 2.598 0 0 1 2.592-2.941c1.564 0 2.508 1.07 2.508 2.837v.388h-3.97v.062a1.489 1.489 0 0 0 1.497 1.613 1.347 1.347 0 0 0 1.338-.683h1.068zm-3.903-1.814h2.84a1.36 1.36 0 0 0-1.384-1.458 1.437 1.437 0 0 0-1.456 1.458z"/>
        </g>
    </g>
</svg>
