<svg xmlns="http://www.w3.org/2000/svg" width="150" height="50" viewBox="0 0 150 50">
    <g fill="none" fill-rule="nonzero">
        <path fill="#A6A6A6" d="M137.668 0H11.918c-.458 0-.91 0-1.368.003-.383.002-.762.01-1.149.015-.84.01-1.676.084-2.505.221a8.331 8.331 0 0 0-2.376.784 8.047 8.047 0 0 0-3.496 3.5 8.251 8.251 0 0 0-.781 2.379c-.14.827-.214 1.664-.224 2.502-.012.384-.013.768-.019 1.151v28.893c.006.388.007.764.019 1.153.01.838.085 1.675.224 2.502.137.829.4 1.631.781 2.38a7.76 7.76 0 0 0 1.473 2.018 7.843 7.843 0 0 0 2.023 1.474c.748.38 1.55.646 2.376.788.829.136 1.666.21 2.505.221.387.009.766.014 1.149.014.457.002.91.002 1.368.002h125.75c.45 0 .906 0 1.355-.002.381 0 .772-.005 1.153-.014.838-.01 1.673-.084 2.5-.22a8.505 8.505 0 0 0 2.385-.79 7.847 7.847 0 0 0 2.022-1.473 7.994 7.994 0 0 0 1.477-2.018c.377-.75.638-1.552.773-2.38.14-.827.217-1.664.232-2.502.005-.389.005-.765.005-1.153.01-.454.01-.906.01-1.367v-26.16c0-.459 0-.913-.01-1.366 0-.383 0-.767-.005-1.15a16.884 16.884 0 0 0-.232-2.503 8.272 8.272 0 0 0-.773-2.38 8.083 8.083 0 0 0-3.499-3.5 8.46 8.46 0 0 0-2.385-.783 16.305 16.305 0 0 0-2.5-.22c-.381-.007-.772-.014-1.153-.017C138.574 0 138.118 0 137.668 0z"/>
        <path fill="#000" d="M10.556 48.906c-.38 0-.752-.005-1.13-.013a15.859 15.859 0 0 1-2.337-.204 7.355 7.355 0 0 1-2.07-.685 6.757 6.757 0 0 1-1.747-1.27 6.651 6.651 0 0 1-1.276-1.746 7.152 7.152 0 0 1-.678-2.072 15.517 15.517 0 0 1-.208-2.343c-.008-.264-.019-1.142-.019-1.142V10.555s.011-.864.019-1.118c.01-.784.078-1.566.207-2.34.119-.723.348-1.424.679-2.077a6.717 6.717 0 0 1 1.269-1.748 6.957 6.957 0 0 1 1.753-1.278 7.279 7.279 0 0 1 2.066-.68A15.732 15.732 0 0 1 9.43 1.11l1.128-.015h128.46l1.142.016c.778.009 1.555.077 2.323.203.726.123 1.43.354 2.088.685a6.992 6.992 0 0 1 3.02 3.025c.325.649.55 1.344.668 2.06.13.78.202 1.57.217 2.36.004.354.004.734.004 1.112.01.47.01.915.01 1.365v26.161c0 .454 0 .897-.01 1.344 0 .407 0 .779-.005 1.162-.014.777-.086 1.551-.214 2.317a7.174 7.174 0 0 1-.675 2.087 6.85 6.85 0 0 1-1.269 1.733 6.766 6.766 0 0 1-1.75 1.278 7.327 7.327 0 0 1-2.084.687c-.773.126-1.554.194-2.337.204-.366.008-.75.013-1.122.013l-1.355.003-127.112-.003z"/>
        <g fill="#FFF">
            <path d="M30.961 25.376a6.186 6.186 0 0 1 2.946-5.19 6.332 6.332 0 0 0-4.99-2.697c-2.098-.22-4.133 1.256-5.203 1.256-1.09 0-2.737-1.234-4.51-1.198a6.644 6.644 0 0 0-5.592 3.41c-2.417 4.185-.614 10.337 1.702 13.72 1.159 1.657 2.513 3.507 4.284 3.442 1.734-.072 2.382-1.106 4.475-1.106 2.073 0 2.68 1.106 4.488 1.064 1.861-.03 3.033-1.664 4.151-3.337a13.702 13.702 0 0 0 1.898-3.865 5.978 5.978 0 0 1-3.649-5.5zM27.547 15.264A6.09 6.09 0 0 0 28.94 10.9a6.197 6.197 0 0 0-4.01 2.075 5.795 5.795 0 0 0-1.43 4.202 5.124 5.124 0 0 0 4.047-1.913z"/>
            <g>
                <path d="M52.878 33.925H46.96l-1.42 4.195h-2.507l5.604-15.522h2.604l5.604 15.522h-2.549l-1.42-4.195zm-5.304-1.936h4.69l-2.312-6.81h-.065l-2.313 6.81zM68.95 32.462c0 3.517-1.883 5.777-4.723 5.777a3.837 3.837 0 0 1-3.561-1.98h-.054v5.605H58.29V26.803h2.249v1.882h.042a4.015 4.015 0 0 1 3.604-2c2.872 0 4.766 2.27 4.766 5.777zm-2.388 0c0-2.291-1.184-3.797-2.99-3.797-1.776 0-2.97 1.538-2.97 3.797 0 2.28 1.194 3.808 2.97 3.808 1.806 0 2.99-1.496 2.99-3.808zM81.406 32.462c0 3.517-1.883 5.777-4.723 5.777a3.837 3.837 0 0 1-3.561-1.98h-.054v5.605h-2.323V26.803h2.249v1.882h.042a4.015 4.015 0 0 1 3.604-2c2.872 0 4.766 2.27 4.766 5.777zm-2.388 0c0-2.291-1.184-3.797-2.99-3.797-1.776 0-2.97 1.538-2.97 3.797 0 2.28 1.194 3.808 2.97 3.808 1.806 0 2.99-1.496 2.99-3.808zM89.638 33.795c.172 1.54 1.668 2.55 3.711 2.55 1.958 0 3.367-1.01 3.367-2.399 0-1.204-.85-1.926-2.862-2.42l-2.011-.485c-2.85-.688-4.174-2.021-4.174-4.184 0-2.679 2.334-4.518 5.648-4.518 3.28 0 5.529 1.84 5.605 4.518h-2.345c-.14-1.55-1.421-2.484-3.293-2.484-1.871 0-3.152.946-3.152 2.323 0 1.097.818 1.743 2.82 2.237l1.71.42c3.184.753 4.507 2.032 4.507 4.303 0 2.904-2.313 4.723-5.992 4.723-3.443 0-5.767-1.776-5.917-4.584h2.378zM104.183 24.125v2.678h2.152v1.84h-2.152v6.239c0 .969.43 1.42 1.377 1.42a7.26 7.26 0 0 0 .764-.053v1.828a6.38 6.38 0 0 1-1.29.108c-2.292 0-3.185-.86-3.185-3.056v-6.486h-1.646v-1.84h1.646v-2.678h2.334zM107.581 32.462c0-3.56 2.097-5.798 5.368-5.798 3.28 0 5.368 2.237 5.368 5.798 0 3.57-2.076 5.798-5.368 5.798-3.291 0-5.368-2.227-5.368-5.798zm8.37 0c0-2.442-1.12-3.884-3.002-3.884-1.883 0-3 1.453-3 3.884 0 2.453 1.117 3.883 3 3.883 1.882 0 3.001-1.43 3.001-3.883zM120.233 26.803h2.215v1.926h.054a2.7 2.7 0 0 1 2.722-2.044c.268-.001.535.028.796.086v2.173a3.247 3.247 0 0 0-1.044-.14 2.34 2.34 0 0 0-2.42 2.603v6.713h-2.323V26.803zM136.73 34.796c-.312 2.055-2.313 3.464-4.873 3.464-3.292 0-5.335-2.205-5.335-5.744 0-3.55 2.054-5.852 5.238-5.852 3.13 0 5.1 2.15 5.1 5.582v.796h-7.993v.14a2.948 2.948 0 0 0 3.044 3.206 2.56 2.56 0 0 0 2.614-1.592h2.205zm-7.852-3.378h5.658a2.722 2.722 0 0 0-2.776-2.872 2.865 2.865 0 0 0-2.882 2.872z"/>
            </g>
        </g>
        <g fill="#FFF">
            <path d="M47.283 10.914a3.3 3.3 0 0 1 3.51 3.706c0 2.383-1.289 3.752-3.51 3.752h-2.694v-7.458h2.694zm-1.536 6.404h1.406a2.345 2.345 0 0 0 2.46-2.683 2.351 2.351 0 0 0-2.46-2.667h-1.406v5.35zM52.1 15.555a2.667 2.667 0 1 1 5.31 0 2.667 2.667 0 1 1-5.31 0zm4.167 0c0-1.22-.548-1.933-1.51-1.933-.965 0-1.509.713-1.509 1.933 0 1.23.544 1.938 1.51 1.938.961 0 1.51-.713 1.51-1.938zM64.467 18.372h-1.153l-1.163-4.145h-.088l-1.158 4.145h-1.142l-1.551-5.628h1.126l1.009 4.295h.083l1.157-4.295h1.066l1.157 4.295h.088l1.003-4.295h1.111zM67.317 12.744h1.07v.894h.082a1.685 1.685 0 0 1 1.68-1.003 1.83 1.83 0 0 1 1.948 2.093v3.644h-1.11v-3.365c0-.904-.394-1.354-1.215-1.354a1.291 1.291 0 0 0-1.344 1.426v3.293h-1.111v-5.628zM73.867 10.546h1.111v7.826h-1.11zM76.522 15.555a2.667 2.667 0 1 1 5.31 0 2.667 2.667 0 1 1-5.31 0zm4.166 0c0-1.22-.548-1.933-1.51-1.933-.965 0-1.508.713-1.508 1.933 0 1.23.543 1.938 1.508 1.938.962 0 1.51-.713 1.51-1.938zM83.001 16.78c0-1.013.755-1.597 2.094-1.68l1.524-.088v-.486c0-.594-.393-.93-1.152-.93-.62 0-1.05.228-1.173.626h-1.076c.114-.967 1.023-1.587 2.3-1.587 1.411 0 2.207.702 2.207 1.891v3.846h-1.07v-.79h-.087a1.894 1.894 0 0 1-1.69.883A1.7 1.7 0 0 1 83 16.78zm3.618-.48v-.471l-1.374.088c-.775.052-1.127.315-1.127.812 0 .506.44.8 1.044.8a1.327 1.327 0 0 0 1.457-1.23zM89.185 15.555c0-1.778.915-2.905 2.337-2.905a1.855 1.855 0 0 1 1.726.988h.083v-3.092h1.11v7.826h-1.064v-.89h-.088a1.954 1.954 0 0 1-1.767.983c-1.432 0-2.337-1.127-2.337-2.91zm1.148 0c0 1.194.562 1.913 1.504 1.913.936 0 1.515-.73 1.515-1.908 0-1.173-.585-1.912-1.515-1.912-.935 0-1.504.723-1.504 1.907zM99.037 15.555a2.667 2.667 0 1 1 5.31 0 2.667 2.667 0 1 1-5.31 0zm4.167 0c0-1.22-.548-1.933-1.51-1.933-.966 0-1.509.713-1.509 1.933 0 1.23.543 1.938 1.509 1.938.962 0 1.51-.713 1.51-1.938zM105.837 12.744h1.07v.894h.082a1.685 1.685 0 0 1 1.68-1.003 1.83 1.83 0 0 1 1.948 2.093v3.644h-1.11v-3.365c0-.904-.394-1.354-1.215-1.354a1.291 1.291 0 0 0-1.344 1.426v3.293h-1.111v-5.628zM116.894 11.342v1.427h1.22v.936h-1.22v2.894c0 .59.243.848.796.848.141 0 .283-.01.423-.026v.926c-.2.035-.401.054-.604.056-1.235 0-1.727-.434-1.727-1.52v-3.178h-.894v-.936h.894v-1.427h1.112zM119.63 10.546h1.102v3.102h.088a1.732 1.732 0 0 1 1.716-1.008 1.854 1.854 0 0 1 1.938 2.098v3.634h-1.112v-3.36c0-.899-.418-1.354-1.203-1.354a1.315 1.315 0 0 0-1.417 1.427v3.287h-1.111v-7.826zM130.952 16.852a2.285 2.285 0 0 1-2.44 1.629 2.557 2.557 0 0 1-2.6-2.905 2.596 2.596 0 0 1 2.596-2.941c1.566 0 2.51 1.07 2.51 2.837v.388h-3.974v.062a1.488 1.488 0 0 0 1.5 1.613 1.35 1.35 0 0 0 1.338-.683h1.07zm-3.908-1.814h2.843a1.358 1.358 0 0 0-1.385-1.458 1.44 1.44 0 0 0-1.458 1.458z"/>
        </g>
    </g>
</svg>
