<?xml version="1.0" encoding="UTF-8"?>
<svg width="32px" height="32px" viewBox="0 0 32 32" version="1.1" xmlns="http://www.w3.org/2000/svg" xmlns:xlink="http://www.w3.org/1999/xlink">
    <title>ic_footer_lenkedin02</title>
    <g id="ic_footer_lenkedin02" stroke="none" stroke-width="1" fill="none" fill-rule="evenodd">
        <g id="ic_footer_lenkedin01" transform="translate(6.000000, 6.000000)" fill="#0288D1">
            <path d="M4.57142857,6.57142857 L4.57142857,19.8571429 L0.428571429,19.8571429 L0.428571429,6.57142857 L4.57142857,6.57142857 Z M15,6.28571429 C19.1428571,6.28571429 20,9 20,12.5714286 L20,19.8571429 L15.7142857,19.8571429 L15.7142857,13.4285714 C15.7142857,11.8571429 15.7142857,9.85714286 13.5714286,9.85714286 C11.4285714,9.85714286 11.1428571,11.5714286 11.1428571,13.2857143 L11.1428571,19.8571429 L7.14285714,19.8571429 L7.14285714,6.57142857 L11.1428571,6.57142857 L11.1428571,8.42857143 C11.7142857,7.42857143 13,6.28571429 15,6.28571429 Z M2.42857143,-2.0743407e-12 C3.71428571,-2.0743407e-12 4.85714286,1 4.85714286,2.42857143 C4.85714286,3.85714286 3.71428571,4.85714286 2.42857143,4.85714286 C1.14285714,4.85714286 1.31894495e-13,3.85714286 1.31894495e-13,2.42857143 C1.31894495e-13,1.14285714 1,-2.0743407e-12 2.42857143,-2.0743407e-12 Z" id="Combined-Shape"></path>
        </g>
    </g>
</svg>