<?xml version="1.0" encoding="UTF-8"?>
<svg width="32px" height="32px" viewBox="0 0 32 32" version="1.1" xmlns="http://www.w3.org/2000/svg" xmlns:xlink="http://www.w3.org/1999/xlink">
    <title>ic_footer_weibo01</title>
    <g id="ic_footer_weibo01" stroke="none" stroke-width="1" fill="none" fill-rule="evenodd">
        <g transform="translate(4.000000, 6.000000)" fill="#FFFFFF">
            <path d="M10.4727273,3.27272727 C11.3454545,3.27272727 11.8909091,3.81818182 11.8909091,4.69090909 C11.8909091,5.23636364 11.7818182,5.89090909 11.6727273,6.43636364 C11.6727273,6.54545455 11.6727273,6.65454545 11.5636364,6.76363636 C12.1090909,6.54545455 12.5454545,6.43636364 12.9818182,6.32727273 C13.7454545,6.10909091 14.5090909,5.89090909 15.3818182,5.89090909 C15.8181818,5.89090909 16.2545455,6 16.6909091,6.10909091 C17.3454545,6.32727273 17.6727273,6.87272727 17.5636364,7.52727273 C17.4545455,8.07272727 17.4545455,8.50909091 17.3454545,8.94545455 C17.2363636,9.16363636 17.3454545,9.27272727 17.5636364,9.38181818 C18.3272727,9.6 18.9818182,10.0363636 19.6363636,10.4727273 C20.4,11.2363636 20.6181818,12.1090909 20.5090909,13.0909091 C20.2909091,14.2909091 19.6363636,15.1636364 18.7636364,16.0363636 C16.8,17.7818182 14.5090909,18.7636364 12,18.9818182 C9.38181818,19.3090909 6.76363636,18.9818182 4.36363636,17.8909091 C3.05454545,17.3454545 1.96363636,16.4727273 1.2,15.2727273 C0.436363636,13.9636364 0.327272727,12.6545455 0.872727273,11.2363636 C1.63636364,9.27272727 2.83636364,7.63636364 4.36363636,6.21818182 C5.45454545,5.23636364 6.54545455,4.36363636 7.85454545,3.81818182 C8.72727273,3.49090909 9.49090909,3.27272727 10.4727273,3.27272727 Z M6.65454545,9.38181818 C5.45454545,9.81818182 4.36363636,10.4727273 3.6,11.5636364 C2.94545455,12.5454545 2.61818182,13.6363636 3.05454545,14.7272727 C3.38181818,15.6 4.03636364,16.1454545 4.8,16.6909091 C6.10909091,17.5636364 7.63636364,17.7818182 9.16363636,17.7818182 C10.3636364,17.7818182 11.5636364,17.5636364 12.6545455,17.1272727 C13.8545455,16.6909091 14.9454545,16.0363636 15.7090909,14.9454545 C16.8,13.5272727 16.5818182,11.7818182 15.3818182,10.5818182 C14.9454545,9.92727273 14.2909091,9.49090909 13.5272727,9.27272727 C11.2363636,8.4 8.94545455,8.50909091 6.65454545,9.38181818 Z M12,11.3454545 C12.5454545,11.8909091 12.8727273,12.5454545 12.8727273,13.4181818 C12.8727273,14.5090909 12.4363636,15.2727273 11.5636364,15.9272727 C10.3636364,16.9090909 8.94545455,17.1272727 7.41818182,16.5818182 C5.78181818,16.0363636 5.34545455,14.5090909 5.78181818,13.0909091 C6.10909091,11.7818182 7.09090909,11.0181818 8.29090909,10.6909091 C9.6,10.2545455 10.9090909,10.4727273 12,11.3454545 Z M6.98181818,13.7454545 C6.76363636,14.1818182 6.76363636,14.5090909 6.87272727,14.9454545 C7.09090909,15.2727273 7.41818182,15.3818182 7.74545455,15.3818182 C8.07272727,15.3818182 8.4,15.2727273 8.72727273,15.0545455 C9.05454545,14.7272727 9.16363636,14.4 9.16363636,13.8545455 C9.27272727,13.5272727 8.94545455,13.3090909 8.61818182,13.2 C8.07272727,12.9818182 7.30909091,13.3090909 6.98181818,13.7454545 Z M10.0363636,12.6545455 C9.81818182,12.6545455 9.49090909,12.8727273 9.49090909,13.2 C9.49090909,13.4181818 9.70909091,13.5272727 9.92727273,13.5272727 C10.2545455,13.5272727 10.4727273,13.3090909 10.4727273,12.9818182 C10.4727273,12.7636364 10.2545455,12.6545455 10.0363636,12.6545455 Z" id="Combined-Shape"></path>
            <path d="M18.6545455,6.21818182 C18.5454545,5.67272727 18.1090909,5.34545455 17.5636364,5.34545455 C17.2363636,5.34545455 16.9090909,5.34545455 16.5818182,5.23636364 C16.2545455,5.12727273 16.1454545,4.90909091 16.0363636,4.58181818 C16.0363636,4.25454545 16.1454545,4.03636364 16.4727273,3.92727273 C16.6909091,3.81818182 17.0181818,3.81818182 17.3454545,3.70909091 C18.9818182,3.81818182 20.0727273,5.01818182 20.2909091,6.32727273 C20.2909091,6.76363636 20.2909091,7.09090909 20.1818182,7.52727273 C20.0727273,8.18181818 19.4181818,8.29090909 18.8727273,8.07272727 C18.6545455,7.96363636 18.6545455,7.74545455 18.6545455,7.41818182 C18.6545455,6.98181818 18.7636364,6.54545455 18.6545455,6.21818182 L18.6545455,6.21818182 Z" id="Path"></path>
            <path d="M23.2363636,8.07272727 C23.1272727,8.50909091 22.9090909,8.94545455 22.4727273,9.05454545 C21.8181818,9.27272727 21.2727273,8.83636364 21.3818182,8.18181818 C21.3818182,7.85454545 21.3818182,7.52727273 21.4909091,7.09090909 C21.7090909,6.21818182 21.4909091,5.34545455 21.0545455,4.58181818 C20.4,3.49090909 19.5272727,2.61818182 18.2181818,2.4 L17.3454545,2.4 L16.1454545,2.4 C15.7090909,2.4 15.4909091,2.18181818 15.3818182,1.74545455 C15.2727273,1.30909091 15.4909091,0.872727273 15.9272727,0.763636364 C16.2545455,0.654545455 16.5818182,0.545454545 16.9090909,0.545454545 C20.1818182,0.327272727 22.6909091,2.50909091 23.3454545,5.34545455 C23.4545455,6.32727273 23.4545455,7.2 23.2363636,8.07272727 L23.2363636,8.07272727 Z" id="Path"></path>
        </g>
    </g>
</svg>