<?xml version="1.0" encoding="UTF-8"?>
<svg width="32px" height="32px" viewBox="0 0 32 32" version="1.1" xmlns="http://www.w3.org/2000/svg" xmlns:xlink="http://www.w3.org/1999/xlink">
    <title>ic_footer__youtube02</title>
    <g id="ic_footer__youtube02" stroke="none" stroke-width="1" fill="none" fill-rule="evenodd">
        <path d="M14.1052632,20.5714286 L14.1052632,12.4285714 L20.4210526,16.5001556 L14.1052632,20.5714286 Z M27.4984545,9.96691129 C27.2224545,8.79902419 26.4091818,7.8793629 25.3766364,7.56724194 C23.5050455,7 16,7 16,7 C16,7 8.49495455,7 6.62336364,7.56724194 C5.59081818,7.8793629 4.77754545,8.79902419 4.50154545,9.96691129 C4,12.0835726 4,16.5 4,16.5 C4,16.5 4,20.9162742 4.50154545,23.0330887 C4.77754545,24.2009758 5.59081818,25.1206371 6.62336364,25.4329113 C8.49495455,26 16,26 16,26 C16,26 23.5050455,26 25.3766364,25.4329113 C26.4091818,25.1206371 27.2224545,24.2009758 27.4984545,23.0330887 C28,20.9162742 28,16.5 28,16.5 C28,16.5 28,12.0835726 27.4984545,9.96691129 L27.4984545,9.96691129 Z" id="Fill-1" fill="#FF0000"></path>
    </g>
</svg>